# xmcd
#
# Track frame offsets:
#	150
#	83292
#	125730
#	184103
#	225899
#	292589
#
# Disc length: 4374 seconds
#
# Revision: 1
# Processed by: cddbd v1.5.2PL0 Copyright (c) Steve Scherf et al.
# Submitted via: audiograbber 1.83.01
#
DISCID=3a111406
DTITLE=Grateful Dead - 73-10-19 Oklahoma City Fairgrounds Arena, Oklahoma City 
DTITLE=OK
DYEAR=1900
DGENRE=
TTITLE0=Dark Star
TTITLE1=Mind Left Body Jam
TTITLE2=Morning Dew
TTITLE3=Sugar Magnolia
TTITLE4=Eyes Of The World
TTITLE5=Stella Blue
EXTD=
EXTT0=
EXTT1=
EXTT2=
EXTT3=
EXTT4=
EXTT5=
PLAYORDER=
